<mxfile host="app.diagrams.net" modified="2023-05-26T11:43:18.526Z" agent="Mozilla/5.0 (Windows NT 10.0; Win64; x64; rv:109.0) Gecko/20100101 Firefox/113.0" etag="bVWyhlhk12WU3ZfP1sqy" version="21.3.2" type="device" pages="2">
  <diagram id="C5RBs43oDa-KdzZeNtuy" name="classes">
    <mxGraphModel dx="1400" dy="755" grid="1" gridSize="10" guides="1" tooltips="1" connect="1" arrows="1" fold="1" page="1" pageScale="1" pageWidth="827" pageHeight="1169" math="0" shadow="0">
      <root>
        <mxCell id="WIyWlLk6GJQsqaUBKTNV-0" />
        <mxCell id="WIyWlLk6GJQsqaUBKTNV-1" parent="WIyWlLk6GJQsqaUBKTNV-0" />
        <mxCell id="zkfFHV4jXpPFQw0GAbJ--17" value="GBDDModel" style="swimlane;fontStyle=0;align=center;verticalAlign=top;childLayout=stackLayout;horizontal=1;startSize=26;horizontalStack=0;resizeParent=1;resizeLast=0;collapsible=1;marginBottom=0;rounded=0;shadow=0;strokeWidth=1;" parent="WIyWlLk6GJQsqaUBKTNV-1" vertex="1">
          <mxGeometry x="7" y="550" width="242" height="268" as="geometry">
            <mxRectangle x="550" y="140" width="160" height="26" as="alternateBounds" />
          </mxGeometry>
        </mxCell>
        <mxCell id="zkfFHV4jXpPFQw0GAbJ--18" value="- model: XGBClassifier" style="text;align=left;verticalAlign=top;spacingLeft=4;spacingRight=4;overflow=hidden;rotatable=0;points=[[0,0.5],[1,0.5]];portConstraint=eastwest;" parent="zkfFHV4jXpPFQw0GAbJ--17" vertex="1">
          <mxGeometry y="26" width="242" height="26" as="geometry" />
        </mxCell>
        <mxCell id="zkfFHV4jXpPFQw0GAbJ--19" value="- model_file: str" style="text;align=left;verticalAlign=top;spacingLeft=4;spacingRight=4;overflow=hidden;rotatable=0;points=[[0,0.5],[1,0.5]];portConstraint=eastwest;rounded=0;shadow=0;html=0;" parent="zkfFHV4jXpPFQw0GAbJ--17" vertex="1">
          <mxGeometry y="52" width="242" height="26" as="geometry" />
        </mxCell>
        <mxCell id="WEsWnnBJ2ObxC38c8Qif-1" value="- read_model(): XGBClassifier" style="text;align=left;verticalAlign=top;spacingLeft=4;spacingRight=4;overflow=hidden;rotatable=0;points=[[0,0.5],[1,0.5]];portConstraint=eastwest;rounded=0;shadow=0;html=0;" vertex="1" parent="zkfFHV4jXpPFQw0GAbJ--17">
          <mxGeometry y="78" width="242" height="26" as="geometry" />
        </mxCell>
        <mxCell id="zkfFHV4jXpPFQw0GAbJ--23" value="" style="line;html=1;strokeWidth=1;align=left;verticalAlign=middle;spacingTop=-1;spacingLeft=3;spacingRight=3;rotatable=0;labelPosition=right;points=[];portConstraint=eastwest;" parent="zkfFHV4jXpPFQw0GAbJ--17" vertex="1">
          <mxGeometry y="104" width="242" height="8" as="geometry" />
        </mxCell>
        <mxCell id="zkfFHV4jXpPFQw0GAbJ--24" value="+ GBDDModel()" style="text;align=left;verticalAlign=top;spacingLeft=4;spacingRight=4;overflow=hidden;rotatable=0;points=[[0,0.5],[1,0.5]];portConstraint=eastwest;" parent="zkfFHV4jXpPFQw0GAbJ--17" vertex="1">
          <mxGeometry y="112" width="242" height="26" as="geometry" />
        </mxCell>
        <mxCell id="WEsWnnBJ2ObxC38c8Qif-14" value="+ fit(X_train, y_train)" style="text;align=left;verticalAlign=top;spacingLeft=4;spacingRight=4;overflow=hidden;rotatable=0;points=[[0,0.5],[1,0.5]];portConstraint=eastwest;" vertex="1" parent="zkfFHV4jXpPFQw0GAbJ--17">
          <mxGeometry y="138" width="242" height="26" as="geometry" />
        </mxCell>
        <mxCell id="zkfFHV4jXpPFQw0GAbJ--25" value="+ predict(X_test): numpy.array" style="text;align=left;verticalAlign=top;spacingLeft=4;spacingRight=4;overflow=hidden;rotatable=0;points=[[0,0.5],[1,0.5]];portConstraint=eastwest;" parent="zkfFHV4jXpPFQw0GAbJ--17" vertex="1">
          <mxGeometry y="164" width="242" height="26" as="geometry" />
        </mxCell>
        <mxCell id="WEsWnnBJ2ObxC38c8Qif-0" value="+ predict_proba(X_test): numpy.array" style="text;align=left;verticalAlign=top;spacingLeft=4;spacingRight=4;overflow=hidden;rotatable=0;points=[[0,0.5],[1,0.5]];portConstraint=eastwest;" vertex="1" parent="zkfFHV4jXpPFQw0GAbJ--17">
          <mxGeometry y="190" width="242" height="26" as="geometry" />
        </mxCell>
        <mxCell id="WEsWnnBJ2ObxC38c8Qif-2" value="+ debug_fit(X_train, y_train, X_test, y_test)" style="text;align=left;verticalAlign=top;spacingLeft=4;spacingRight=4;overflow=hidden;rotatable=0;points=[[0,0.5],[1,0.5]];portConstraint=eastwest;" vertex="1" parent="zkfFHV4jXpPFQw0GAbJ--17">
          <mxGeometry y="216" width="242" height="26" as="geometry" />
        </mxCell>
        <mxCell id="WEsWnnBJ2ObxC38c8Qif-3" value="+ grid_search(X_train, y_train)" style="text;align=left;verticalAlign=top;spacingLeft=4;spacingRight=4;overflow=hidden;rotatable=0;points=[[0,0.5],[1,0.5]];portConstraint=eastwest;" vertex="1" parent="zkfFHV4jXpPFQw0GAbJ--17">
          <mxGeometry y="242" width="242" height="26" as="geometry" />
        </mxCell>
        <mxCell id="WEsWnnBJ2ObxC38c8Qif-4" value="PromiseDataset" style="swimlane;fontStyle=0;align=center;verticalAlign=top;childLayout=stackLayout;horizontal=1;startSize=26;horizontalStack=0;resizeParent=1;resizeLast=0;collapsible=1;marginBottom=0;rounded=0;shadow=0;strokeWidth=1;" vertex="1" parent="WIyWlLk6GJQsqaUBKTNV-1">
          <mxGeometry x="33" y="890" width="190" height="112" as="geometry">
            <mxRectangle x="550" y="140" width="160" height="26" as="alternateBounds" />
          </mxGeometry>
        </mxCell>
        <mxCell id="WEsWnnBJ2ObxC38c8Qif-5" value="- filename: str" style="text;align=left;verticalAlign=top;spacingLeft=4;spacingRight=4;overflow=hidden;rotatable=0;points=[[0,0.5],[1,0.5]];portConstraint=eastwest;" vertex="1" parent="WEsWnnBJ2ObxC38c8Qif-4">
          <mxGeometry y="26" width="190" height="26" as="geometry" />
        </mxCell>
        <mxCell id="WEsWnnBJ2ObxC38c8Qif-8" value="" style="line;html=1;strokeWidth=1;align=left;verticalAlign=middle;spacingTop=-1;spacingLeft=3;spacingRight=3;rotatable=0;labelPosition=right;points=[];portConstraint=eastwest;" vertex="1" parent="WEsWnnBJ2ObxC38c8Qif-4">
          <mxGeometry y="52" width="190" height="8" as="geometry" />
        </mxCell>
        <mxCell id="WEsWnnBJ2ObxC38c8Qif-9" value="+ PromiseDataset(dataset_path)" style="text;align=left;verticalAlign=top;spacingLeft=4;spacingRight=4;overflow=hidden;rotatable=0;points=[[0,0.5],[1,0.5]];portConstraint=eastwest;" vertex="1" parent="WEsWnnBJ2ObxC38c8Qif-4">
          <mxGeometry y="60" width="190" height="26" as="geometry" />
        </mxCell>
        <mxCell id="WEsWnnBJ2ObxC38c8Qif-27" value="+ prepare(): list[DataFrame]" style="text;align=left;verticalAlign=top;spacingLeft=4;spacingRight=4;overflow=hidden;rotatable=0;points=[[0,0.5],[1,0.5]];portConstraint=eastwest;" vertex="1" parent="WEsWnnBJ2ObxC38c8Qif-4">
          <mxGeometry y="86" width="190" height="26" as="geometry" />
        </mxCell>
        <mxCell id="WEsWnnBJ2ObxC38c8Qif-15" value="MetricsCppCode" style="swimlane;fontStyle=0;align=center;verticalAlign=top;childLayout=stackLayout;horizontal=1;startSize=26;horizontalStack=0;resizeParent=1;resizeLast=0;collapsible=1;marginBottom=0;rounded=0;shadow=0;strokeWidth=1;" vertex="1" parent="WIyWlLk6GJQsqaUBKTNV-1">
          <mxGeometry x="286" y="550" width="242" height="294" as="geometry">
            <mxRectangle x="550" y="140" width="160" height="26" as="alternateBounds" />
          </mxGeometry>
        </mxCell>
        <mxCell id="WEsWnnBJ2ObxC38c8Qif-16" value="- src: str" style="text;align=left;verticalAlign=top;spacingLeft=4;spacingRight=4;overflow=hidden;rotatable=0;points=[[0,0.5],[1,0.5]];portConstraint=eastwest;" vertex="1" parent="WEsWnnBJ2ObxC38c8Qif-15">
          <mxGeometry y="26" width="242" height="26" as="geometry" />
        </mxCell>
        <mxCell id="WEsWnnBJ2ObxC38c8Qif-17" value="- code_lines: list[str]" style="text;align=left;verticalAlign=top;spacingLeft=4;spacingRight=4;overflow=hidden;rotatable=0;points=[[0,0.5],[1,0.5]];portConstraint=eastwest;rounded=0;shadow=0;html=0;" vertex="1" parent="WEsWnnBJ2ObxC38c8Qif-15">
          <mxGeometry y="52" width="242" height="26" as="geometry" />
        </mxCell>
        <mxCell id="WEsWnnBJ2ObxC38c8Qif-28" value="- delete_blank_and_comments(): list[str]" style="text;align=left;verticalAlign=top;spacingLeft=4;spacingRight=4;overflow=hidden;rotatable=0;points=[[0,0.5],[1,0.5]];portConstraint=eastwest;rounded=0;shadow=0;html=0;" vertex="1" parent="WEsWnnBJ2ObxC38c8Qif-15">
          <mxGeometry y="78" width="242" height="26" as="geometry" />
        </mxCell>
        <mxCell id="WEsWnnBJ2ObxC38c8Qif-19" value="" style="line;html=1;strokeWidth=1;align=left;verticalAlign=middle;spacingTop=-1;spacingLeft=3;spacingRight=3;rotatable=0;labelPosition=right;points=[];portConstraint=eastwest;" vertex="1" parent="WEsWnnBJ2ObxC38c8Qif-15">
          <mxGeometry y="104" width="242" height="8" as="geometry" />
        </mxCell>
        <mxCell id="WEsWnnBJ2ObxC38c8Qif-20" value="+ MetricsCppCode(function_code)" style="text;align=left;verticalAlign=top;spacingLeft=4;spacingRight=4;overflow=hidden;rotatable=0;points=[[0,0.5],[1,0.5]];portConstraint=eastwest;" vertex="1" parent="WEsWnnBJ2ObxC38c8Qif-15">
          <mxGeometry y="112" width="242" height="26" as="geometry" />
        </mxCell>
        <mxCell id="WEsWnnBJ2ObxC38c8Qif-21" value="+ set_function_code(function_code)" style="text;align=left;verticalAlign=top;spacingLeft=4;spacingRight=4;overflow=hidden;rotatable=0;points=[[0,0.5],[1,0.5]];portConstraint=eastwest;" vertex="1" parent="WEsWnnBJ2ObxC38c8Qif-15">
          <mxGeometry y="138" width="242" height="26" as="geometry" />
        </mxCell>
        <mxCell id="WEsWnnBJ2ObxC38c8Qif-22" value="+ count(): dict[str, float]" style="text;align=left;verticalAlign=top;spacingLeft=4;spacingRight=4;overflow=hidden;rotatable=0;points=[[0,0.5],[1,0.5]];portConstraint=eastwest;" vertex="1" parent="WEsWnnBJ2ObxC38c8Qif-15">
          <mxGeometry y="164" width="242" height="26" as="geometry" />
        </mxCell>
        <mxCell id="WEsWnnBJ2ObxC38c8Qif-23" value="+ count_loc(): int" style="text;align=left;verticalAlign=top;spacingLeft=4;spacingRight=4;overflow=hidden;rotatable=0;points=[[0,0.5],[1,0.5]];portConstraint=eastwest;" vertex="1" parent="WEsWnnBJ2ObxC38c8Qif-15">
          <mxGeometry y="190" width="242" height="26" as="geometry" />
        </mxCell>
        <mxCell id="WEsWnnBJ2ObxC38c8Qif-24" value="+ count_vg(): int" style="text;align=left;verticalAlign=top;spacingLeft=4;spacingRight=4;overflow=hidden;rotatable=0;points=[[0,0.5],[1,0.5]];portConstraint=eastwest;" vertex="1" parent="WEsWnnBJ2ObxC38c8Qif-15">
          <mxGeometry y="216" width="242" height="26" as="geometry" />
        </mxCell>
        <mxCell id="WEsWnnBJ2ObxC38c8Qif-25" value="+ count_n_metrics(): dict[str, float]" style="text;align=left;verticalAlign=top;spacingLeft=4;spacingRight=4;overflow=hidden;rotatable=0;points=[[0,0.5],[1,0.5]];portConstraint=eastwest;" vertex="1" parent="WEsWnnBJ2ObxC38c8Qif-15">
          <mxGeometry y="242" width="242" height="26" as="geometry" />
        </mxCell>
        <mxCell id="WEsWnnBJ2ObxC38c8Qif-29" value="+ count_halstead_loc_metrics(): dict[str, int]" style="text;align=left;verticalAlign=top;spacingLeft=4;spacingRight=4;overflow=hidden;rotatable=0;points=[[0,0.5],[1,0.5]];portConstraint=eastwest;" vertex="1" parent="WEsWnnBJ2ObxC38c8Qif-15">
          <mxGeometry y="268" width="242" height="26" as="geometry" />
        </mxCell>
        <mxCell id="WEsWnnBJ2ObxC38c8Qif-30" value="SintaxHighLighter" style="swimlane;fontStyle=0;align=center;verticalAlign=top;childLayout=stackLayout;horizontal=1;startSize=26;horizontalStack=0;resizeParent=1;resizeLast=0;collapsible=1;marginBottom=0;rounded=0;shadow=0;strokeWidth=1;" vertex="1" parent="WIyWlLk6GJQsqaUBKTNV-1">
          <mxGeometry x="570" y="550" width="240" height="164" as="geometry">
            <mxRectangle x="550" y="140" width="160" height="26" as="alternateBounds" />
          </mxGeometry>
        </mxCell>
        <mxCell id="WEsWnnBJ2ObxC38c8Qif-31" value="- highlight_line: dict[int, QTextCharFormat]" style="text;align=left;verticalAlign=top;spacingLeft=4;spacingRight=4;overflow=hidden;rotatable=0;points=[[0,0.5],[1,0.5]];portConstraint=eastwest;" vertex="1" parent="WEsWnnBJ2ObxC38c8Qif-30">
          <mxGeometry y="26" width="240" height="26" as="geometry" />
        </mxCell>
        <mxCell id="WEsWnnBJ2ObxC38c8Qif-34" value="" style="line;html=1;strokeWidth=1;align=left;verticalAlign=middle;spacingTop=-1;spacingLeft=3;spacingRight=3;rotatable=0;labelPosition=right;points=[];portConstraint=eastwest;" vertex="1" parent="WEsWnnBJ2ObxC38c8Qif-30">
          <mxGeometry y="52" width="240" height="8" as="geometry" />
        </mxCell>
        <mxCell id="WEsWnnBJ2ObxC38c8Qif-35" value="+ SintaxHighLighter(document)" style="text;align=left;verticalAlign=top;spacingLeft=4;spacingRight=4;overflow=hidden;rotatable=0;points=[[0,0.5],[1,0.5]];portConstraint=eastwest;" vertex="1" parent="WEsWnnBJ2ObxC38c8Qif-30">
          <mxGeometry y="60" width="240" height="26" as="geometry" />
        </mxCell>
        <mxCell id="WEsWnnBJ2ObxC38c8Qif-36" value="+ highlight_line(line, line_format)" style="text;align=left;verticalAlign=top;spacingLeft=4;spacingRight=4;overflow=hidden;rotatable=0;points=[[0,0.5],[1,0.5]];portConstraint=eastwest;" vertex="1" parent="WEsWnnBJ2ObxC38c8Qif-30">
          <mxGeometry y="86" width="240" height="26" as="geometry" />
        </mxCell>
        <mxCell id="WEsWnnBJ2ObxC38c8Qif-37" value="+ clear()" style="text;align=left;verticalAlign=top;spacingLeft=4;spacingRight=4;overflow=hidden;rotatable=0;points=[[0,0.5],[1,0.5]];portConstraint=eastwest;" vertex="1" parent="WEsWnnBJ2ObxC38c8Qif-30">
          <mxGeometry y="112" width="240" height="26" as="geometry" />
        </mxCell>
        <mxCell id="WEsWnnBJ2ObxC38c8Qif-38" value="+ highlightBlock(text)" style="text;align=left;verticalAlign=top;spacingLeft=4;spacingRight=4;overflow=hidden;rotatable=0;points=[[0,0.5],[1,0.5]];portConstraint=eastwest;" vertex="1" parent="WEsWnnBJ2ObxC38c8Qif-30">
          <mxGeometry y="138" width="240" height="26" as="geometry" />
        </mxCell>
        <mxCell id="WEsWnnBJ2ObxC38c8Qif-42" value="Window" style="swimlane;fontStyle=0;align=center;verticalAlign=top;childLayout=stackLayout;horizontal=1;startSize=26;horizontalStack=0;resizeParent=1;resizeLast=0;collapsible=1;marginBottom=0;rounded=0;shadow=0;strokeWidth=1;" vertex="1" parent="WIyWlLk6GJQsqaUBKTNV-1">
          <mxGeometry x="267" y="190" width="280" height="242" as="geometry">
            <mxRectangle x="550" y="140" width="160" height="26" as="alternateBounds" />
          </mxGeometry>
        </mxCell>
        <mxCell id="WEsWnnBJ2ObxC38c8Qif-43" value="- highlighter: SyntaxHighLighter" style="text;align=left;verticalAlign=top;spacingLeft=4;spacingRight=4;overflow=hidden;rotatable=0;points=[[0,0.5],[1,0.5]];portConstraint=eastwest;" vertex="1" parent="WEsWnnBJ2ObxC38c8Qif-42">
          <mxGeometry y="26" width="280" height="26" as="geometry" />
        </mxCell>
        <mxCell id="WEsWnnBJ2ObxC38c8Qif-44" value="- model: GBDDModel" style="text;align=left;verticalAlign=top;spacingLeft=4;spacingRight=4;overflow=hidden;rotatable=0;points=[[0,0.5],[1,0.5]];portConstraint=eastwest;rounded=0;shadow=0;html=0;" vertex="1" parent="WEsWnnBJ2ObxC38c8Qif-42">
          <mxGeometry y="52" width="280" height="26" as="geometry" />
        </mxCell>
        <mxCell id="WEsWnnBJ2ObxC38c8Qif-45" value="- metrics: MetricsCppCode" style="text;align=left;verticalAlign=top;spacingLeft=4;spacingRight=4;overflow=hidden;rotatable=0;points=[[0,0.5],[1,0.5]];portConstraint=eastwest;rounded=0;shadow=0;html=0;" vertex="1" parent="WEsWnnBJ2ObxC38c8Qif-42">
          <mxGeometry y="78" width="280" height="26" as="geometry" />
        </mxCell>
        <mxCell id="WEsWnnBJ2ObxC38c8Qif-53" value="- split_code_by_functions(): list[tuple[int, int, str]]" style="text;align=left;verticalAlign=top;spacingLeft=4;spacingRight=4;overflow=hidden;rotatable=0;points=[[0,0.5],[1,0.5]];portConstraint=eastwest;rounded=0;shadow=0;html=0;" vertex="1" parent="WEsWnnBJ2ObxC38c8Qif-42">
          <mxGeometry y="104" width="280" height="26" as="geometry" />
        </mxCell>
        <mxCell id="WEsWnnBJ2ObxC38c8Qif-46" value="" style="line;html=1;strokeWidth=1;align=left;verticalAlign=middle;spacingTop=-1;spacingLeft=3;spacingRight=3;rotatable=0;labelPosition=right;points=[];portConstraint=eastwest;" vertex="1" parent="WEsWnnBJ2ObxC38c8Qif-42">
          <mxGeometry y="130" width="280" height="8" as="geometry" />
        </mxCell>
        <mxCell id="WEsWnnBJ2ObxC38c8Qif-47" value="+ Window()" style="text;align=left;verticalAlign=top;spacingLeft=4;spacingRight=4;overflow=hidden;rotatable=0;points=[[0,0.5],[1,0.5]];portConstraint=eastwest;" vertex="1" parent="WEsWnnBJ2ObxC38c8Qif-42">
          <mxGeometry y="138" width="280" height="26" as="geometry" />
        </mxCell>
        <mxCell id="WEsWnnBJ2ObxC38c8Qif-48" value="+ open_file()" style="text;align=left;verticalAlign=top;spacingLeft=4;spacingRight=4;overflow=hidden;rotatable=0;points=[[0,0.5],[1,0.5]];portConstraint=eastwest;" vertex="1" parent="WEsWnnBJ2ObxC38c8Qif-42">
          <mxGeometry y="164" width="280" height="26" as="geometry" />
        </mxCell>
        <mxCell id="WEsWnnBJ2ObxC38c8Qif-49" value="+ clean_editor()" style="text;align=left;verticalAlign=top;spacingLeft=4;spacingRight=4;overflow=hidden;rotatable=0;points=[[0,0.5],[1,0.5]];portConstraint=eastwest;" vertex="1" parent="WEsWnnBJ2ObxC38c8Qif-42">
          <mxGeometry y="190" width="280" height="26" as="geometry" />
        </mxCell>
        <mxCell id="WEsWnnBJ2ObxC38c8Qif-50" value="+ run_searching()" style="text;align=left;verticalAlign=top;spacingLeft=4;spacingRight=4;overflow=hidden;rotatable=0;points=[[0,0.5],[1,0.5]];portConstraint=eastwest;" vertex="1" parent="WEsWnnBJ2ObxC38c8Qif-42">
          <mxGeometry y="216" width="280" height="26" as="geometry" />
        </mxCell>
        <mxCell id="WEsWnnBJ2ObxC38c8Qif-54" value="" style="endArrow=diamondThin;endFill=1;endSize=24;html=1;rounded=0;exitX=0.5;exitY=0;exitDx=0;exitDy=0;entryX=0.732;entryY=1.012;entryDx=0;entryDy=0;edgeStyle=orthogonalEdgeStyle;entryPerimeter=0;" edge="1" parent="WIyWlLk6GJQsqaUBKTNV-1" source="WEsWnnBJ2ObxC38c8Qif-30" target="WEsWnnBJ2ObxC38c8Qif-50">
          <mxGeometry width="160" relative="1" as="geometry">
            <mxPoint x="657" y="240" as="sourcePoint" />
            <mxPoint x="817" y="240" as="targetPoint" />
            <Array as="points">
              <mxPoint x="690" y="490" />
              <mxPoint x="472" y="490" />
            </Array>
          </mxGeometry>
        </mxCell>
        <mxCell id="WEsWnnBJ2ObxC38c8Qif-55" value="" style="endArrow=diamondThin;endFill=1;endSize=24;html=1;rounded=0;exitX=0.5;exitY=0;exitDx=0;exitDy=0;entryX=0.25;entryY=1;entryDx=0;entryDy=0;edgeStyle=orthogonalEdgeStyle;" edge="1" parent="WIyWlLk6GJQsqaUBKTNV-1" source="zkfFHV4jXpPFQw0GAbJ--17" target="WEsWnnBJ2ObxC38c8Qif-42">
          <mxGeometry width="160" relative="1" as="geometry">
            <mxPoint x="657" y="240" as="sourcePoint" />
            <mxPoint x="817" y="240" as="targetPoint" />
          </mxGeometry>
        </mxCell>
        <mxCell id="WEsWnnBJ2ObxC38c8Qif-62" value="" style="endArrow=open;endFill=1;endSize=12;html=1;rounded=0;edgeStyle=orthogonalEdgeStyle;entryX=0.5;entryY=0;entryDx=0;entryDy=0;exitX=0.5;exitY=1;exitDx=0;exitDy=0;" edge="1" parent="WIyWlLk6GJQsqaUBKTNV-1" source="zkfFHV4jXpPFQw0GAbJ--17" target="WEsWnnBJ2ObxC38c8Qif-4">
          <mxGeometry width="160" relative="1" as="geometry">
            <mxPoint x="70" y="860" as="sourcePoint" />
            <mxPoint x="115" y="820" as="targetPoint" />
          </mxGeometry>
        </mxCell>
        <mxCell id="WEsWnnBJ2ObxC38c8Qif-65" value="" style="endArrow=diamondThin;endFill=1;endSize=24;html=1;rounded=0;entryX=0.5;entryY=1;entryDx=0;entryDy=0;exitX=0.5;exitY=0;exitDx=0;exitDy=0;edgeStyle=orthogonalEdgeStyle;" edge="1" parent="WIyWlLk6GJQsqaUBKTNV-1" source="WEsWnnBJ2ObxC38c8Qif-15" target="WEsWnnBJ2ObxC38c8Qif-42">
          <mxGeometry width="160" relative="1" as="geometry">
            <mxPoint x="380" y="530" as="sourcePoint" />
            <mxPoint x="410" y="440" as="targetPoint" />
          </mxGeometry>
        </mxCell>
      </root>
    </mxGraphModel>
  </diagram>
  <diagram id="bpGn8Q54VaySVx_F-EEk" name="components">
    <mxGraphModel dx="1000" dy="539" grid="1" gridSize="10" guides="1" tooltips="1" connect="1" arrows="1" fold="1" page="1" pageScale="1" pageWidth="827" pageHeight="1169" math="0" shadow="0">
      <root>
        <mxCell id="0" />
        <mxCell id="1" parent="0" />
        <mxCell id="UHtt1ouEPlaiX_Ai4SAv-3" value="&lt;div&gt;&lt;font style=&quot;font-size: 14px;&quot;&gt;Графический интерфейс&lt;/font&gt;&lt;/div&gt;" style="html=1;dropTarget=0;whiteSpace=wrap;" vertex="1" parent="1">
          <mxGeometry x="425" y="160" width="200" height="90" as="geometry" />
        </mxCell>
        <mxCell id="UHtt1ouEPlaiX_Ai4SAv-4" value="" style="shape=module;jettyWidth=8;jettyHeight=4;" vertex="1" parent="UHtt1ouEPlaiX_Ai4SAv-3">
          <mxGeometry x="1" width="20" height="20" relative="1" as="geometry">
            <mxPoint x="-27" y="7" as="offset" />
          </mxGeometry>
        </mxCell>
        <mxCell id="UHtt1ouEPlaiX_Ai4SAv-5" value="&lt;font style=&quot;font-size: 14px;&quot;&gt;Обработчик данных&lt;/font&gt;" style="html=1;dropTarget=0;whiteSpace=wrap;" vertex="1" parent="1">
          <mxGeometry x="610" y="380" width="200" height="90" as="geometry" />
        </mxCell>
        <mxCell id="UHtt1ouEPlaiX_Ai4SAv-6" value="" style="shape=module;jettyWidth=8;jettyHeight=4;" vertex="1" parent="UHtt1ouEPlaiX_Ai4SAv-5">
          <mxGeometry x="1" width="20" height="20" relative="1" as="geometry">
            <mxPoint x="-27" y="7" as="offset" />
          </mxGeometry>
        </mxCell>
        <mxCell id="UHtt1ouEPlaiX_Ai4SAv-7" value="&lt;font style=&quot;font-size: 14px;&quot;&gt;Модель градиентного бустинга&lt;br&gt;&lt;/font&gt;" style="html=1;dropTarget=0;whiteSpace=wrap;" vertex="1" parent="1">
          <mxGeometry x="240" y="380" width="200" height="90" as="geometry" />
        </mxCell>
        <mxCell id="UHtt1ouEPlaiX_Ai4SAv-8" value="" style="shape=module;jettyWidth=8;jettyHeight=4;" vertex="1" parent="UHtt1ouEPlaiX_Ai4SAv-7">
          <mxGeometry x="1" width="20" height="20" relative="1" as="geometry">
            <mxPoint x="-27" y="7" as="offset" />
          </mxGeometry>
        </mxCell>
        <mxCell id="UHtt1ouEPlaiX_Ai4SAv-25" value="" style="rounded=0;orthogonalLoop=1;jettySize=auto;html=1;endArrow=none;endFill=0;sketch=0;sourcePerimeterSpacing=0;targetPerimeterSpacing=0;edgeStyle=orthogonalEdgeStyle;exitX=0.25;exitY=1;exitDx=0;exitDy=0;" edge="1" target="UHtt1ouEPlaiX_Ai4SAv-27" parent="1" source="UHtt1ouEPlaiX_Ai4SAv-3">
          <mxGeometry relative="1" as="geometry">
            <mxPoint x="460" y="280" as="sourcePoint" />
            <Array as="points">
              <mxPoint x="475" y="335" />
            </Array>
          </mxGeometry>
        </mxCell>
        <mxCell id="UHtt1ouEPlaiX_Ai4SAv-26" value="" style="rounded=0;orthogonalLoop=1;jettySize=auto;html=1;endArrow=halfCircle;endFill=0;entryX=0.5;entryY=0.5;endSize=6;strokeWidth=1;sketch=0;edgeStyle=orthogonalEdgeStyle;exitX=0.5;exitY=0;exitDx=0;exitDy=0;" edge="1" target="UHtt1ouEPlaiX_Ai4SAv-27" parent="1" source="UHtt1ouEPlaiX_Ai4SAv-7">
          <mxGeometry relative="1" as="geometry">
            <mxPoint x="200" y="330" as="sourcePoint" />
            <Array as="points">
              <mxPoint x="340" y="335" />
            </Array>
          </mxGeometry>
        </mxCell>
        <mxCell id="UHtt1ouEPlaiX_Ai4SAv-27" value="" style="ellipse;whiteSpace=wrap;html=1;align=center;aspect=fixed;resizable=0;points=[];outlineConnect=0;sketch=0;" vertex="1" parent="1">
          <mxGeometry x="415" y="330" width="10" height="10" as="geometry" />
        </mxCell>
        <mxCell id="UHtt1ouEPlaiX_Ai4SAv-41" value="" style="rounded=0;orthogonalLoop=1;jettySize=auto;html=1;endArrow=none;endFill=0;sketch=0;sourcePerimeterSpacing=0;targetPerimeterSpacing=0;exitX=0.75;exitY=1;exitDx=0;exitDy=0;edgeStyle=orthogonalEdgeStyle;" edge="1" target="UHtt1ouEPlaiX_Ai4SAv-43" parent="1" source="UHtt1ouEPlaiX_Ai4SAv-3">
          <mxGeometry relative="1" as="geometry">
            <mxPoint x="620" y="335" as="sourcePoint" />
            <Array as="points">
              <mxPoint x="575" y="335" />
            </Array>
          </mxGeometry>
        </mxCell>
        <mxCell id="UHtt1ouEPlaiX_Ai4SAv-42" value="" style="rounded=0;orthogonalLoop=1;jettySize=auto;html=1;endArrow=halfCircle;endFill=0;entryX=0.5;entryY=0.5;endSize=6;strokeWidth=1;sketch=0;edgeStyle=orthogonalEdgeStyle;exitX=0.5;exitY=0;exitDx=0;exitDy=0;" edge="1" target="UHtt1ouEPlaiX_Ai4SAv-43" parent="1" source="UHtt1ouEPlaiX_Ai4SAv-5">
          <mxGeometry relative="1" as="geometry">
            <mxPoint x="677" y="370" as="sourcePoint" />
            <Array as="points">
              <mxPoint x="710" y="335" />
            </Array>
          </mxGeometry>
        </mxCell>
        <mxCell id="UHtt1ouEPlaiX_Ai4SAv-43" value="" style="ellipse;whiteSpace=wrap;html=1;align=center;aspect=fixed;resizable=0;points=[];outlineConnect=0;sketch=0;" vertex="1" parent="1">
          <mxGeometry x="625" y="330" width="10" height="10" as="geometry" />
        </mxCell>
        <mxCell id="mqVGgQHdFeBfn2POjqnq-1" value="" style="rounded=0;orthogonalLoop=1;jettySize=auto;html=1;endArrow=none;endFill=0;sketch=0;sourcePerimeterSpacing=0;targetPerimeterSpacing=0;exitX=1;exitY=0.5;exitDx=0;exitDy=0;edgeStyle=orthogonalEdgeStyle;" edge="1" target="mqVGgQHdFeBfn2POjqnq-3" parent="1" source="UHtt1ouEPlaiX_Ai4SAv-7">
          <mxGeometry relative="1" as="geometry">
            <mxPoint x="510" y="425" as="sourcePoint" />
          </mxGeometry>
        </mxCell>
        <mxCell id="mqVGgQHdFeBfn2POjqnq-2" value="" style="rounded=0;orthogonalLoop=1;jettySize=auto;html=1;endArrow=halfCircle;endFill=0;entryX=0.5;entryY=0.5;endSize=6;strokeWidth=1;sketch=0;exitX=0;exitY=0.5;exitDx=0;exitDy=0;edgeStyle=orthogonalEdgeStyle;" edge="1" target="mqVGgQHdFeBfn2POjqnq-3" parent="1" source="UHtt1ouEPlaiX_Ai4SAv-5">
          <mxGeometry relative="1" as="geometry">
            <mxPoint x="550" y="425" as="sourcePoint" />
          </mxGeometry>
        </mxCell>
        <mxCell id="mqVGgQHdFeBfn2POjqnq-3" value="" style="ellipse;whiteSpace=wrap;html=1;align=center;aspect=fixed;resizable=0;points=[];outlineConnect=0;sketch=0;" vertex="1" parent="1">
          <mxGeometry x="525" y="420" width="10" height="10" as="geometry" />
        </mxCell>
      </root>
    </mxGraphModel>
  </diagram>
</mxfile>
